<?xml version="1.0" encoding="UTF-8" standalone="no"?>
<!-- Created with Inkscape (http://www.inkscape.org/) -->

<svg
   xmlns:dc="http://purl.org/dc/elements/1.1/"
   xmlns:cc="http://creativecommons.org/ns#"
   xmlns:rdf="http://www.w3.org/1999/02/22-rdf-syntax-ns#"
   xmlns:svg="http://www.w3.org/2000/svg"
   xmlns="http://www.w3.org/2000/svg"
   xmlns:xlink="http://www.w3.org/1999/xlink"
   xmlns:sodipodi="http://sodipodi.sourceforge.net/DTD/sodipodi-0.dtd"
   xmlns:inkscape="http://www.inkscape.org/namespaces/inkscape"
   width="48.999996mm"
   height="48.999996mm"
   viewBox="0 0 48.999996 48.999996"
   version="1.1"
   id="svg4522"
   inkscape:version="0.92.4 (5da689c313, 2019-01-14)"
   sodipodi:docname="waning_gibbous.svg">
  <defs
     id="defs4516">
    <linearGradient
       inkscape:collect="always"
       xlink:href="#linearGradient1248"
       id="linearGradient1375"
       gradientUnits="userSpaceOnUse"
       x1="-164.75587"
       y1="231.78645"
       x2="-166.17009"
       y2="354.82303" />
    <linearGradient
       inkscape:collect="always"
       id="linearGradient1248">
      <stop
         style="stop-color:#f2f2f2;stop-opacity:1;"
         offset="0"
         id="stop1244" />
      <stop
         style="stop-color:#f2f2f2;stop-opacity:0;"
         offset="1"
         id="stop1246" />
    </linearGradient>
    <linearGradient
       inkscape:collect="always"
       xlink:href="#linearGradient1469"
       id="linearGradient4491"
       gradientUnits="userSpaceOnUse"
       gradientTransform="translate(1854.9833,32.416259)"
       x1="-417.19299"
       y1="636.95862"
       x2="-420.02142"
       y2="378.15756" />
    <linearGradient
       inkscape:collect="always"
       id="linearGradient1469">
      <stop
         style="stop-color:#000000;stop-opacity:1;"
         offset="0"
         id="stop1465" />
      <stop
         style="stop-color:#000000;stop-opacity:0;"
         offset="1"
         id="stop1467" />
    </linearGradient>
  </defs>
  <sodipodi:namedview
     id="base"
     pagecolor="#ffffff"
     bordercolor="#666666"
     borderopacity="1.0"
     inkscape:pageopacity="0.0"
     inkscape:pageshadow="2"
     inkscape:zoom="1.4"
     inkscape:cx="-16.775132"
     inkscape:cy="130.37789"
     inkscape:document-units="mm"
     inkscape:current-layer="layer1"
     showgrid="false"
     inkscape:window-width="1920"
     inkscape:window-height="1019"
     inkscape:window-x="0"
     inkscape:window-y="0"
     inkscape:window-maximized="1" />
  <metadata
     id="metadata4519">
    <rdf:RDF>
      <cc:Work
         rdf:about="">
        <dc:format>image/svg+xml</dc:format>
        <dc:type
           rdf:resource="http://purl.org/dc/dcmitype/StillImage" />
        <dc:title />
      </cc:Work>
    </rdf:RDF>
  </metadata>
  <g
     inkscape:label="Layer 1"
     inkscape:groupmode="layer"
     id="layer1"
     transform="translate(-52.819374,-88.972011)">
    <g
       id="g1379"
       transform="matrix(0.0345119,0,0,-0.03463142,-323.66059,197.33788)">
      <path
         inkscape:connector-curvature="0"
         inkscape:export-ydpi="300.23535"
         inkscape:export-xdpi="300.23535"
         d="m 11621.1,3129.12 c -0.9,0 -1.7,-0.06 -2.5,-0.06 0.1,-0.01 0.2,-0.01 0.2,-0.01 9.5,-2.82 446,-135.98 446,-692.38 0,-545.56 -438.9,-719.62 -446,-722.38 -0.1,0 -0.2,0 -0.2,-0.01 0.8,0 1.6,-0.06 2.5,-0.06 390.7,0 707.4,316.74 707.4,707.45 0,390.71 -316.7,707.45 -707.4,707.45"
         style="fill:#31454c;fill-opacity:1;fill-rule:nonzero;stroke:none"
         id="path32" />
      <path
         inkscape:connector-curvature="0"
         inkscape:export-ydpi="300.23535"
         inkscape:export-xdpi="300.23535"
         d="m 11618.8,3129.05 c 0,0 -0.1,0 -0.2,0.01 -0.8,0.01 -1.6,0.06 -2.4,0.06 -390.7,0 -707.5,-316.74 -707.5,-707.45 0,-390.71 316.8,-707.45 707.5,-707.45 0.8,0 1.6,0.05 2.4,0.06 0,0.01 0.1,0.01 0.2,0.01 7.1,2.76 446,176.82 446,722.38 0,556.4 -436.5,689.56 -446,692.38"
         style="fill:#fcdc58;fill-opacity:1;fill-rule:nonzero;stroke:none"
         id="path34" />
    </g>
    <g
       id="g4489"
       transform="matrix(0.25883925,0,0,0.25973565,-294.83716,-4.5554513)">
      <g
         transform="translate(1597.4371,113.02744)"
         id="g1369"
         style="display:inline">
        <ellipse
           style="display:inline;fill:url(#linearGradient1375);fill-opacity:1;stroke:none;stroke-width:0.36815044;stroke-opacity:1"
           id="ellipse1367"
           cx="-160.64456"
           cy="314.83759"
           rx="74.161598"
           ry="63.83252" />
      </g>
      <path
         inkscape:export-filename="/home/lex/Downloads/WorldClock_100_X4/_MOONX/moonphases/waning_gibbous.png"
         inkscape:transform-center-y="53.740115"
         inkscape:transform-center-x="38.183766"
         inkscape:connector-curvature="0"
         inkscape:export-ydpi="600"
         inkscape:export-xdpi="600"
         d="m 1437.7896,360.08844 c -52.0946,0 -94.3253,42.232 -94.3253,94.32533 0,52.09467 42.2307,94.32667 94.3253,94.32667 52.096,0 94.3267,-42.232 94.3267,-94.32667 0,-52.09333 -42.2307,-94.32533 -94.3267,-94.32533"
         style="display:inline;fill:url(#linearGradient4491);fill-opacity:1;fill-rule:nonzero;stroke:none;stroke-width:0.13333333"
         id="path50-5-3" />
    </g>
  </g>
</svg>
