<?xml version="1.0" encoding="UTF-8" standalone="no"?>
<!-- Created with Inkscape (http://www.inkscape.org/) -->

<svg
   xmlns:dc="http://purl.org/dc/elements/1.1/"
   xmlns:cc="http://creativecommons.org/ns#"
   xmlns:rdf="http://www.w3.org/1999/02/22-rdf-syntax-ns#"
   xmlns:svg="http://www.w3.org/2000/svg"
   xmlns="http://www.w3.org/2000/svg"
   xmlns:xlink="http://www.w3.org/1999/xlink"
   xmlns:sodipodi="http://sodipodi.sourceforge.net/DTD/sodipodi-0.dtd"
   xmlns:inkscape="http://www.inkscape.org/namespaces/inkscape"
   width="48.999996mm"
   height="48.999996mm"
   viewBox="0 0 48.999997 48.999996"
   version="1.1"
   id="svg4293"
   inkscape:version="0.92.4 (5da689c313, 2019-01-14)"
   sodipodi:docname="waxing_gibbous.svg">
  <defs
     id="defs4287">
    <linearGradient
       inkscape:collect="always"
       xlink:href="#linearGradient1469"
       id="linearGradient1471-5"
       x1="-417.19299"
       y1="636.95862"
       x2="-420.02142"
       y2="378.15756"
       gradientUnits="userSpaceOnUse"
       gradientTransform="translate(1321.9983,32.173033)" />
    <linearGradient
       inkscape:collect="always"
       id="linearGradient1469">
      <stop
         style="stop-color:#000000;stop-opacity:1;"
         offset="0"
         id="stop1465" />
      <stop
         style="stop-color:#000000;stop-opacity:0;"
         offset="1"
         id="stop1467" />
    </linearGradient>
    <linearGradient
       inkscape:collect="always"
       xlink:href="#linearGradient1248"
       id="linearGradient1347"
       gradientUnits="userSpaceOnUse"
       x1="-164.75587"
       y1="231.78645"
       x2="-166.17009"
       y2="354.82303" />
    <linearGradient
       inkscape:collect="always"
       id="linearGradient1248">
      <stop
         style="stop-color:#f2f2f2;stop-opacity:1;"
         offset="0"
         id="stop1244" />
      <stop
         style="stop-color:#f2f2f2;stop-opacity:0;"
         offset="1"
         id="stop1246" />
    </linearGradient>
  </defs>
  <sodipodi:namedview
     id="base"
     pagecolor="#ffffff"
     bordercolor="#666666"
     borderopacity="1.0"
     inkscape:pageopacity="0.0"
     inkscape:pageshadow="2"
     inkscape:zoom="1.4"
     inkscape:cx="-36.94053"
     inkscape:cy="25.755275"
     inkscape:document-units="mm"
     inkscape:current-layer="layer1"
     showgrid="false"
     inkscape:window-width="1920"
     inkscape:window-height="1019"
     inkscape:window-x="0"
     inkscape:window-y="0"
     inkscape:window-maximized="1" />
  <metadata
     id="metadata4290">
    <rdf:RDF>
      <cc:Work
         rdf:about="">
        <dc:format>image/svg+xml</dc:format>
        <dc:type
           rdf:resource="http://purl.org/dc/dcmitype/StillImage" />
        <dc:title />
      </cc:Work>
    </rdf:RDF>
  </metadata>
  <g
     inkscape:label="Layer 1"
     inkscape:groupmode="layer"
     id="layer1"
     transform="translate(-58.154801,-106.64775)">
    <g
       id="g1351"
       transform="matrix(0.03457229,0,0,-0.03463142,-178.62217,215.01362)">
      <path
         inkscape:connector-curvature="0"
         inkscape:export-ydpi="300.23535"
         inkscape:export-xdpi="300.23535"
         d="m 7558.61,3129.12 c -0.88,0 -1.75,-0.06 -2.64,-0.07 -9.47,-2.82 -445.97,-135.98 -445.97,-692.38 0,-545.56 438.95,-719.62 446.02,-722.38 0.87,-0.01 1.73,-0.07 2.59,-0.07 390.73,0 707.46,316.74 707.46,707.45 0,390.71 -316.73,707.45 -707.46,707.45"
         style="fill:#fcdc58;fill-opacity:1;fill-rule:nonzero;stroke:none"
         id="path38" />
      <path
         inkscape:connector-curvature="0"
         inkscape:export-ydpi="300.23535"
         inkscape:export-xdpi="300.23535"
         d="m 7110,2436.67 c 0,556.4 436.5,689.56 445.97,692.38 0.1,0.03 0.22,0.07 0.22,0.07 -390.71,0 -707.44,-316.74 -707.44,-707.45 0,-390.71 316.73,-707.45 707.44,-707.45 0,0 -0.1,0.04 -0.17,0.07 -7.07,2.76 -446.02,176.82 -446.02,722.38"
         style="fill:#31454c;fill-opacity:1;fill-rule:nonzero;stroke:none"
         id="path40" />
    </g>
    <g
       style="display:inline"
       id="g4262"
       transform="matrix(0.25929217,0,0,0.25973565,-151.95412,13.183466)">
      <path
         inkscape:export-filename="/home/lex/Downloads/WorldClock_100_X4/_MOONX/moonphases/waxing_gibbous.png"
         inkscape:transform-center-y="53.740115"
         inkscape:transform-center-x="38.183766"
         inkscape:connector-curvature="0"
         inkscape:export-ydpi="600"
         inkscape:export-xdpi="600"
         d="m 904.80459,359.84521 c -52.0946,0 -94.3253,42.232 -94.3253,94.32533 0,52.09467 42.2307,94.32667 94.3253,94.32667 52.096,0 94.3267,-42.232 94.3267,-94.32667 0,-52.09333 -42.2307,-94.32533 -94.3267,-94.32533"
         style="display:inline;fill:url(#linearGradient1471-5);fill-opacity:1;fill-rule:nonzero;stroke:none;stroke-width:0.13333333"
         id="path50-5-6" />
      <g
         transform="translate(1064.6254,112.78421)"
         id="g1341">
        <ellipse
           style="display:inline;fill:url(#linearGradient1347);fill-opacity:1;stroke:none;stroke-width:0.36815044;stroke-opacity:1"
           id="ellipse1339"
           cx="-160.64456"
           cy="314.83759"
           rx="74.161598"
           ry="63.83252" />
      </g>
    </g>
  </g>
</svg>
